<svg width="2061" height="579" viewBox="0 0 2061 579" fill="none" xmlns="http://www.w3.org/2000/svg">
<path d="M245.309 340.137C245.309 321.387 238.668 306.934 225.387 296.777C212.301 286.621 188.57 276.367 154.195 266.016C119.82 255.664 92.4766 244.141 72.1641 231.445C33.2969 207.031 13.8633 175.195 13.8633 135.938C13.8633 101.563 27.8281 73.2422 55.7578 50.9766C83.8828 28.7109 120.309 17.5781 165.035 17.5781C194.723 17.5781 221.188 23.0469 244.43 33.9844C267.672 44.9219 285.934 60.5469 299.215 80.8594C312.496 100.977 319.137 123.34 319.137 147.949H245.309C245.309 125.684 238.277 108.301 224.215 95.8008C210.348 83.1055 190.426 76.7578 164.449 76.7578C140.23 76.7578 121.383 81.9336 107.906 92.2852C94.625 102.637 87.9844 117.09 87.9844 135.645C87.9844 151.27 95.2109 164.355 109.664 174.902C124.117 185.254 147.945 195.41 181.148 205.371C214.352 215.137 241.012 226.367 261.129 239.062C281.246 251.562 295.992 266.016 305.367 282.422C314.742 298.633 319.43 317.676 319.43 339.551C319.43 375.098 305.758 403.418 278.414 424.512C251.266 445.41 214.352 455.859 167.672 455.859C136.812 455.859 108.395 450.195 82.418 438.867C56.6367 427.344 36.5195 411.523 22.0664 391.406C7.80859 371.289 0.679688 347.852 0.679688 321.094H74.8008C74.8008 345.312 82.8086 364.062 98.8242 377.344C114.84 390.625 137.789 397.266 167.672 397.266C193.453 397.266 212.789 392.09 225.68 381.738C238.766 371.191 245.309 357.324 245.309 340.137ZM466.793 55.957V133.008H522.75V185.742H466.793V362.695C466.793 374.805 469.137 383.594 473.824 389.062C478.707 394.336 487.301 396.973 499.605 396.973C507.809 396.973 516.109 395.996 524.508 394.043V449.121C508.297 453.613 492.672 455.859 477.633 455.859C422.945 455.859 395.602 425.684 395.602 365.332V185.742H343.453V133.008H395.602V55.957H466.793ZM688.277 348.047L752.73 133.008H828.609L702.633 498.047C683.297 551.367 650.484 578.027 604.195 578.027C593.844 578.027 582.418 576.27 569.918 572.754V517.676L583.395 518.555C601.363 518.555 614.84 515.234 623.824 508.594C633.004 502.148 640.23 491.211 645.504 475.781L655.758 448.535L544.43 133.008H621.188L688.277 348.047ZM945.504 450H874.312V0H945.504V450ZM1099.02 450H1027.83V133.008H1099.02V450ZM1023.43 50.6836C1023.43 39.7461 1026.85 30.6641 1033.69 23.4375C1040.72 16.2109 1050.68 12.5977 1063.57 12.5977C1076.46 12.5977 1086.42 16.2109 1093.45 23.4375C1100.48 30.6641 1104 39.7461 1104 50.6836C1104 61.4258 1100.48 70.4102 1093.45 77.6367C1086.42 84.668 1076.46 88.1836 1063.57 88.1836C1050.68 88.1836 1040.72 84.668 1033.69 77.6367C1026.85 70.4102 1023.43 61.4258 1023.43 50.6836ZM1252.83 393.164H1421.58V450H1164.35V403.418L1325.19 190.43H1167.28V133.008H1415.43V178.125L1252.83 393.164ZM1613.47 455.859C1568.36 455.859 1531.73 441.699 1503.61 413.379C1475.68 384.863 1461.71 346.973 1461.71 299.707V290.918C1461.71 259.277 1467.77 231.055 1479.88 206.25C1492.18 181.25 1509.37 161.816 1531.44 147.949C1553.51 134.082 1578.12 127.148 1605.27 127.148C1648.43 127.148 1681.73 140.918 1705.17 168.457C1728.8 195.996 1740.62 234.961 1740.62 285.352V314.062H1533.49C1535.64 340.234 1544.33 360.938 1559.57 376.172C1575 391.406 1594.33 399.023 1617.57 399.023C1650.19 399.023 1676.75 385.84 1697.26 359.473L1735.64 396.094C1722.95 415.039 1705.95 429.785 1684.66 440.332C1663.57 450.684 1639.84 455.859 1613.47 455.859ZM1604.98 184.277C1585.45 184.277 1569.62 191.113 1557.52 204.785C1545.6 218.457 1537.98 237.5 1534.66 261.914H1670.31V256.641C1668.75 232.812 1662.4 214.844 1651.27 202.734C1640.13 190.43 1624.7 184.277 1604.98 184.277ZM1782.81 289.16C1782.81 240.332 1794.14 201.172 1816.79 171.68C1839.45 141.992 1869.82 127.148 1907.91 127.148C1941.5 127.148 1968.65 138.867 1989.35 162.305V0H2060.54V450H1996.09L1992.57 417.188C1971.29 442.969 1942.87 455.859 1907.32 455.859C1870.21 455.859 1840.13 440.918 1817.09 411.035C1794.23 381.152 1782.81 340.527 1782.81 289.16ZM1854 295.312C1854 327.539 1860.15 352.734 1872.46 370.898C1884.96 388.867 1902.63 397.852 1925.48 397.852C1954.59 397.852 1975.88 384.863 1989.35 358.887V223.535C1976.27 198.145 1955.17 185.449 1926.07 185.449C1903.02 185.449 1885.25 194.629 1872.75 212.988C1860.25 231.152 1854 258.594 1854 295.312Z" fill="#005BE4"/>
</svg>
